<svg xmlns="http://www.w3.org/2000/svg" width="45.059" height="45.059" viewBox="0 0 45.059 45.059">
  <path id="linkedin" d="M14.082,37.227H7.922V17.337h6.16ZM14.7,11a3.608,3.608,0,1,0-3.606,3.609A3.609,3.609,0,0,0,14.7,11ZM37.139,26.284c0-5.339-1.128-9.3-7.365-9.3a6.393,6.393,0,0,0-5.83,3.058h-.006V17.337H17.954V37.227h5.984V27.351c0-2.586.658-5.092,3.864-5.092,3.162,0,3.264,2.958,3.264,5.256v9.711h6.072ZM45.06,39.779V5.28A5.286,5.286,0,0,0,39.779,0H5.281A5.286,5.286,0,0,0,0,5.28v34.5a5.286,5.286,0,0,0,5.28,5.28h34.5A5.286,5.286,0,0,0,45.06,39.779ZM39.779,3.52a1.762,1.762,0,0,1,1.76,1.76v34.5a1.762,1.762,0,0,1-1.76,1.76H5.281a1.762,1.762,0,0,1-1.76-1.76V5.28a1.762,1.762,0,0,1,1.76-1.76Zm0,0" transform="translate(0)" fill="#fff"/>
</svg>
