<svg xmlns="http://www.w3.org/2000/svg" xmlns:xlink="http://www.w3.org/1999/xlink" width="2353.308" height="4672.893" viewBox="0 0 2353.308 4672.893">
  <defs>
    <clipPath id="clip-path">
      <rect id="Rectangle_64" data-name="Rectangle 64" width="2353.308" height="4672.893" fill="none"/>
    </clipPath>
  </defs>
  <g id="Group_3398" data-name="Group 3398" opacity="0.64">
    <g id="Group_8" data-name="Group 8" clip-path="url(#clip-path)">
      <path id="Path_50" data-name="Path 50" d="M1930.434,0c-80.545,114.493-140.615,226.444-178.54,332.745-30.351,85.075-46.67,166.743-48.5,242.741-3.122,129.506,37.544,198.581,37.956,199.265l1.805-1.059c-.409-.679-40.807-69.368-37.657-198.342,2.907-119.084,44.592-315.36,226.663-574.168Z" transform="translate(85.596 3898.141)" fill="#00dfdb"/>
      <path id="Path_51" data-name="Path 51" d="M2352.64,18.49c-317.24,105-544.262,325.68-694.04,674.651-130.058,303.028-183.3,658.5-230.282,972.118-25.135,167.8-48.876,326.3-81.81,461.2-29.063,119.053-58.656,205.727-90.469,264.976-31.018,57.768-64.536,90.115-102.471,98.887-25.727,5.951-53.612,1.248-85.248-14.375-29.3-14.468-61.99-38.463-99.951-73.355-72.225-66.386-157.44-166.87-256.111-283.219-39.034-46.028-79.4-93.621-122.915-143.862-97.776-112.881-189.554-205.707-272.788-275.9-66.621-56.18-127.957-98.076-182.306-124.524-48.435-23.57-82.272-30.264-102.129-31.727-21.663-1.605-31.7,2.4-32.12,2.566l.8,1.915c.4-.161,40.856-15.628,133.033,29.358,85.14,41.551,233,144.617,453.911,399.656,43.51,50.233,83.869,97.823,122.9,143.847,98.717,116.4,183.971,216.932,256.29,283.405,38.111,35.03,70.966,59.135,100.443,73.692,32.094,15.85,60.443,20.607,86.668,14.541,77.183-17.851,137.17-130.543,194.5-365.4,32.955-135,56.7-293.535,81.844-461.383,94.066-627.981,211.135-1409.525,922.913-1645.108Z" transform="translate(0 2158.846)" fill="#00dfdb"/>
      <path id="Path_52" data-name="Path 52" d="M2214.811,1679.187C1956.386,2133.113,1327.542,2682.894,557.54,2817.328c-85.466,14.921-162.38,39.575-228.609,73.276-61.792,31.446-114.507,70.841-156.682,117.09-39.625,43.454-69.7,92.616-89.389,146.125A439.06,439.06,0,0,0,56.091,3314.13C58.2,3429.453,103.479,3542.4,183.6,3632.177a528.481,528.481,0,0,0,146.36,114.651c59.09,31.491,124.365,52.336,194.01,61.958,648.04,89.529,1018.42,303.108,1215.014,466.515,111.292,92.5,179.894,179.067,217.846,235.4,41.12,61.03,56.115,100.7,56.261,101.088l1.972-.714c-.147-.4-15.192-40.214-56.4-101.4-38.013-56.438-106.723-143.168-218.185-235.837-125.252-104.134-277.866-194.4-453.6-268.293-219.635-92.349-476.213-159.236-762.611-198.8-300.833-41.562-462.176-279.289-466.07-492.641C54.609,3117.73,184,2884.648,557.907,2819.369c175.655-30.667,353.005-85.322,527.124-162.443,163.009-72.2,321.258-163.131,470.353-270.262,282.709-203.139,517.548-454.031,661.259-706.462Z" transform="translate(2.815 -1679.188)" fill="#00dfdb"/>
    </g>
  </g>
</svg>
